# xmcd
#
# Track frame offsets:
#	150
#	12032
#	24502
#	36900
#	48627
#	60657
#	72595
#	85942
#	97725
#	110172
#	122102
#	133127
#	145435
#	156747
#	169972
#	181890
#	194437
#	207742
#	220127
#	233072
#	244030
#	253980
#	266620
#	279265
#	292965
#
# Disc length: 4097 seconds
#
# Revision: 0
# Processed by: cddbd v1.5.2PL0 Copyright (c) Steve Scherf et al.
# Submitted via: audiograbber 1.83.01
#
DISCID=870fff19
DTITLE=Hank Williams - Cold Cold Hart
DYEAR=1194
DGENRE=Country
TTITLE0=Mansion On The Hill
TTITLE1=Move It On Over
TTITLE2=Lovesick Blues
TTITLE3=Kaw Liga
TTITLE4=take Tehse Chians Form My Heart
TTITLE5=Settin' The Woods On Fire
TTITLE6=Hey Good Lookin'
TTITLE7=My Son Call Another man Daddy
TTITLE8=Half as Much
TTITLE9=Long Gone Lonesome Blues
TTITLE10=Lonsome Whistle
TTITLE11=Lsot Highway
TTITLE12=Crazy Heart
TTITLE13=Jambalaya
TTITLE14=Yoy Win Again
TTITLE15=Cold Cold Heart
TTITLE16=Wedding Bells
TTITLE17=Your Cheatin' Heart
TTITLE18=May You Never Be Alone
TTITLE19=I Can't Help It
TTITLE20=Honky Tonk Blues
TTITLE21=I'm So Lonesome I Could Cry
TTITLE22=I Saw The Light
TTITLE23=Beyond The Sunset
TTITLE24=Men With Broken Hearts
EXTD=
EXTT0=
EXTT1=
EXTT2=
EXTT3=
EXTT4=
EXTT5=
EXTT6=
EXTT7=
EXTT8=
EXTT9=
EXTT10=
EXTT11=
EXTT12=
EXTT13=
EXTT14=
EXTT15=
EXTT16=
EXTT17=
EXTT18=
EXTT19=
EXTT20=
EXTT21=
EXTT22=
EXTT23=
EXTT24=
PLAYORDER=
